TITLE ""
FILE "DISC1Track25.mp3" MP3
  TRACK 01 AUDIO
    TITLE "DISC1Track25_01"
    INDEX 01 00:00:00
  TRACK 02 AUDIO
    TITLE "DISC1Track25_02"
    INDEX 01 00:01:39
  TRACK 03 AUDIO
    TITLE "DISC1Track25_03"
    INDEX 01 00:01:57
  TRACK 04 AUDIO
    TITLE "DISC1Track25_04"
    INDEX 01 00:05:58
  TRACK 05 AUDIO
    TITLE "DISC1Track25_05"
    INDEX 01 00:10:15
  TRACK 06 AUDIO
    TITLE "DISC1Track25_06"
    INDEX 01 00:14:12
  TRACK 07 AUDIO
    TITLE "DISC1Track25_07"
    INDEX 01 00:14:26
  TRACK 08 AUDIO
    TITLE "DISC1Track25_08"
    INDEX 01 00:17:30
  TRACK 09 AUDIO
    TITLE "DISC1Track25_09"
    INDEX 01 00:20:40
  TRACK 10 AUDIO
    TITLE "DISC1Track25_10"
    INDEX 01 00:23:27
  TRACK 11 AUDIO
    TITLE "DISC1Track25_11"
    INDEX 01 00:23:39
  TRACK 12 AUDIO
    TITLE "DISC1Track25_12"
    INDEX 01 00:26:37
  TRACK 13 AUDIO
    TITLE "DISC1Track25_13"
    INDEX 01 00:30:07
  TRACK 14 AUDIO
    TITLE "DISC1Track25_14"
    INDEX 01 00:33:18
  TRACK 15 AUDIO
    TITLE "DISC1Track25_15"
    INDEX 01 00:33:29
  TRACK 16 AUDIO
    TITLE "DISC1Track25_16"
    INDEX 01 00:36:55
  TRACK 17 AUDIO
    TITLE "DISC1Track25_17"
    INDEX 01 00:39:69
  TRACK 18 AUDIO
    TITLE "DISC1Track25_18"
    INDEX 01 00:42:50
  TRACK 19 AUDIO
    TITLE "DISC1Track25_19"
    INDEX 01 00:42:60
  TRACK 20 AUDIO
    TITLE "DISC1Track25_20"
    INDEX 01 00:45:72
  TRACK 21 AUDIO
    TITLE "DISC1Track25_21"
    INDEX 01 00:50:02
  TRACK 22 AUDIO
    TITLE "DISC1Track25_22"
    INDEX 01 00:53:46
  TRACK 23 AUDIO
    TITLE "DISC1Track25_23"
    INDEX 01 00:53:67
  TRACK 24 AUDIO
    TITLE "DISC1Track25_24"
    INDEX 01 00:57:06
  TRACK 25 AUDIO
    TITLE "DISC1Track25_25"
    INDEX 01 01:00:12
  TRACK 26 AUDIO
    TITLE "DISC1Track25_26"
    INDEX 01 01:02:56
  TRACK 27 AUDIO
    TITLE "DISC1Track25_27"
    INDEX 01 01:02:68
  TRACK 28 AUDIO
    TITLE "DISC1Track25_28"
    INDEX 01 01:06:17
  TRACK 29 AUDIO
    TITLE "DISC1Track25_29"
    INDEX 01 01:09:21
  TRACK 30 AUDIO
    TITLE "DISC1Track25_30"
    INDEX 01 01:12:02
  TRACK 31 AUDIO
    TITLE "DISC1Track25_31"
    INDEX 01 01:12:18
  TRACK 32 AUDIO
    TITLE "DISC1Track25_32"
    INDEX 01 01:15:18
  TRACK 33 AUDIO
    TITLE "DISC1Track25_33"
    INDEX 01 01:18:50
  TRACK 34 AUDIO
    TITLE "DISC1Track25_34"
    INDEX 01 01:21:48
  TRACK 35 AUDIO
    TITLE "DISC1Track25_35"
    INDEX 01 01:21:64
  TRACK 36 AUDIO
    TITLE "DISC1Track25_36"
    INDEX 01 01:24:66
  TRACK 37 AUDIO
    TITLE "DISC1Track25_37"
    INDEX 01 01:28:56
  TRACK 38 AUDIO
    TITLE "DISC1Track25_38"
    INDEX 01 01:32:07
  TRACK 39 AUDIO
    TITLE "DISC1Track25_39"
    INDEX 01 01:32:34
  TRACK 40 AUDIO
    TITLE "DISC1Track25_40"
    INDEX 01 01:35:34
  TRACK 41 AUDIO
    TITLE "DISC1Track25_41"
    INDEX 01 01:37:59
  TRACK 42 AUDIO
    TITLE "DISC1Track25_42"
    INDEX 01 01:39:50
